<?xml version="1.0" encoding="UTF-8"?>
<svg version="1.1" xmlns="http://www.w3.org/2000/svg" width="44" height="51">
<path d="M0 0 C14.52 0 29.04 0 44 0 C44 16.83 44 33.66 44 51 C29.48 51 14.96 51 0 51 C0 34.17 0 17.34 0 0 Z " fill="#F2FDFA" transform="translate(0,0)"/>
<path d="M0 0 C2.64 0 5.28 0 8 0 C11.81736095 9.60721844 15.5088139 19.24642368 18.9375 29 C19.24373291 29.86592773 19.54996582 30.73185547 19.86547852 31.62402344 C20.14576904 32.4287207 20.42605957 33.23341797 20.71484375 34.0625 C20.96355225 34.77535156 21.21226074 35.48820312 21.46850586 36.22265625 C22 38 22 38 22 40 C19.03 40 16.06 40 13 40 C11.46302761 35.75241605 9.93339124 31.50227968 8.41015625 27.24975586 C7.89225092 25.80699657 7.3724353 24.3649214 6.85058594 22.92358398 C4.1144508 15.36252088 1.47091817 7.9305528 0 0 Z " fill="#1A2526" transform="translate(19,5)"/>
<path d="M0 0 C3.0625 0.25 3.0625 0.25 6.0625 2.25 C6.49816323 5.08181098 6.45934676 6.61063578 4.9375 9.0625 C2.20262639 10.79458662 0.22509871 10.65373601 -2.9375 10.25 C-5.08665785 7.02626323 -5.32036803 5.98296326 -4.9375 2.25 C-2.9375 0.25 -2.9375 0.25 0 0 Z " fill="#0CFFB5" transform="translate(10.9375,29.75)"/>
</svg>
